#!OML:ASF E:/inclinewalkrobotboard/Project1/Captureday1/Session1/subject1.ASF
:FULLY-SPECIFIED
:DEGREES
263
root 0 0 0 1.7522359659472164 -10.696284892528189 0.7762341060730232
lowerback 0.006249596457382323 -1.5331033551543747 -2.5533489912051293
upperback -0.6540365750734819 -2.0105492768435154 1.8788888010727187
thorax -0.494115894564084 -0.9841710471999388 3.3250288467352362
lowerneck -24.38344817055574 -1.6129803442345736 -7.608257293793144
upperneck 28.41997157666271 0.34873897157829503 1.8889359380897637
head 13.65978283587071 -0.608876883989136 2.216699737962546
rclavicle -9.307566890368904E-15 1.5220905808898376E-15
rhumerus -30.84129507248583 -0.2480053747259907 -82.16114834086285
rradius 31.851381477125056
rwrist 18.371574031037134
rhand -18.501339981647952 9.111636400364262
rfingers 7.125019999999945
rthumb 7.787425939995829 -20.775435165349837
lclavicle 4.299756995182449E-16 -1.4124177049348918E-16
lhumerus -20.677340771571476 -3.518966032410354 91.11331364081147
lradius 64.62711593147532
lwrist 1.7459112307185136
lhand -28.702497768432323 20.64036325877144
lfingers 7.125020000000028
lthumb -2.0650682365781305 50.627586770005614
rfemur 11.761668155389222 8.616293731742411 36.57589126742586
rtibia 24.166802428501683
rfoot -21.686850223111797 -6.490857917988873
rtoes -3.5569533108893214
lfemur -31.568046142703096 -4.038326539106523 -8.901820473107222
ltibia 23.22098403303445
lfoot -5.594186125931522 4.44530724893024
ltoes -3.9736602565005015
264
root 0 0 0 1.7511696510094221 -10.715286483369123 0.7773863213547603
lowerback -0.0038581661346324125 -1.536548535886556 -2.56045861033659
upperback -0.6578845914405638 -2.0145132417030256 1.856579827999881
thorax -0.4917054974213191 -0.9855345456769646 3.3059271002507917
lowerneck -24.34331279448564 -1.605467627012743 -7.614023818869656
upperneck 28.54022976755742 0.3616298948076285 1.8658118412235367
head 13.694207453594974 -0.6081543772323901 2.211217192204402
rclavicle -1.052575329220938E-14 1.3575121241188103E-15
rhumerus -30.858174999180292 0.07397530736547164 -82.00719504300629
rradius 31.76371047470588
rwrist 18.302457625156148
rhand -18.581353614022483 9.181968415984384
rfingers 7.1250199999999415
rthumb 7.710001766130216 -20.706681072273515
lclavicle -9.225917390116718E-16 -5.814793954571191E-17
lhumerus -20.45443543680547 -2.7694388805652883 90.92694113249672
lradius 64.41429378526769
lwrist 1.6142015924697488
lhand -28.682831816323702 20.542112965303318
lfingers 7.125020000000028
lthumb -2.039777521163942 50.522164248815045
rfemur 14.268084829154462 7.59556008028691 34.851372983199994
rtibia 31.269723024342134
rfoot -17.835617296570824 -4.2238842087535415
rtoes -6.937115239936541
lfemur -30.262329301298244 -5.198663829191149 -9.284945199699807
ltibia 19.748105504392708
lfoot -4.308297175798756 3.857356801387307
ltoes -3.1751160400471337
265
root 0 0 0 1.7421035525290374 -10.744448455814716 0.7825081496300818
lowerback -0.020618289083170094 -1.542760649802282 -2.567725776303096
upperback -0.6719872176033913 -2.0220012610269174 1.8341779498003623
thorax -0.49479397546493475 -0.9881653585316125 3.2857613614636185
lowerneck -24.35683518730067 -1.605247936010491 -7.612125429267239
upperneck 28.641248951227308 0.36977292345616253 1.8364973150235604
head 13.733417487131673 -0.6104960107929596 2.2020246228497125
rclavicle -1.1274810526073512E-14 1.1772074546136413E-15
rhumerus -30.93325627398788 0.20933040312530604 -81.80722086694122
rradius 31.626753417848256
rwrist 18.29847943095121
rhand -18.605606873669554 9.229131606090302
rfingers 7.125019999999939
rthumb 7.685973327866581 -20.655627819329908
lclavicle -2.8851614467644447E-15 2.425234536432896E-16
lhumerus -20.039208635261538 -2.0210069656874157 90.73043857804494
lradius 64.17368648222906
lwrist 1.4798184232818605
lhand -28.72610188757456 20.51032629999282
lfingers 7.125020000000028
lthumb -2.0777099508335306 50.48114786143188
rfemur 12.432187996410184 6.05202559574214 32.19351624029602
rtibia 39.000664306932926
rfoot -10.969184563504015 -1.8022717684807414
rtoes -6.5402366409956025
lfemur -29.187723694740097 -5.121057964758176 -10.377940619873842
ltibia 20.670928043745583
lfoot -3.247018355764018 2.709347627375196
ltoes -1.5113616352421033
266
root 0 0 0 1.7320528984338248 -10.794543871150877 0.7984314687593166
lowerback -0.056542689410364 -1.5553901386447193 -2.580296479035594
upperback -0.6930224764463315 -2.0387610326640275 1.8067917536022529
thorax -0.4935784640688393 -0.9950562835186423 3.2634399992873635
lowerneck -24.452590356039682 -1.6182258824721845 -7.6143334854104445
upperneck 28.66164168488009 0.36912631558454634 1.8129831647490982
head 13.76235007702066 -0.6146509193910544 2.19255614435538
rclavicle -1.1437615454342637E-14 1.123076892579259E-15
rhumerus -31.05243290504121 0.042163682020476934 -81.63321128346867
rradius 31.489094931366463
rwrist 18.372645391188485
rhand -18.553437855122844 9.224728296612668
rfingers 7.125019999999937
rthumb 7.735317293761893 -20.65104897068212
lclavicle -3.4846620415452477E-15 4.831123388425049E-16
lhumerus -19.54054448391101 -1.3130077026950242 90.53150970945627
lradius 63.98539222097076
lwrist 1.3453961010955466
lhand -28.792211043871134 20.515670330328447
lfingers 7.125020000000028
lthumb -2.139042235332769 50.47634358780313
rfemur 5.9674487632119 4.0119486105910545 27.240743554459222
rtibia 51.49141367864636
rfoot 0.28150173476232787 0.7994670909146566
rtoes -1.520791085386156
lfemur -27.075670209080034 -4.433461363780022 -12.87931864955586
ltibia 25.55320267289612
lfoot -1.9525135754484246 -0.23122251966448992
ltoes 1.7577485230186802
